<svg width="23" height="22" viewBox="0 0 23 22" fill="none" xmlns="http://www.w3.org/2000/svg">
<path d="M9.875 19.25C9.875 19.6208 9.76503 19.9834 9.559 20.2917C9.35298 20.6 9.06014 20.8404 8.71753 20.9823C8.37492 21.1242 7.99792 21.1613 7.6342 21.089C7.27049 21.0166 6.9364 20.838 6.67417 20.5758C6.41195 20.3136 6.23337 19.9795 6.16103 19.6158C6.08868 19.2521 6.12581 18.8751 6.26773 18.5325C6.40964 18.1899 6.64996 17.897 6.95831 17.691C7.26665 17.485 7.62916 17.375 8 17.375C8.49728 17.375 8.97419 17.5725 9.32582 17.9242C9.67745 18.2758 9.875 18.7527 9.875 19.25ZM17.75 17.375C17.3792 17.375 17.0166 17.485 16.7083 17.691C16.4 17.897 16.1596 18.1899 16.0177 18.5325C15.8758 18.8751 15.8387 19.2521 15.911 19.6158C15.9834 19.9795 16.162 20.3136 16.4242 20.5758C16.6864 20.838 17.0205 21.0166 17.3842 21.089C17.7479 21.1613 18.1249 21.1242 18.4675 20.9823C18.8101 20.8404 19.103 20.6 19.309 20.2917C19.515 19.9834 19.625 19.6208 19.625 19.25C19.625 18.7527 19.4275 18.2758 19.0758 17.9242C18.7242 17.5725 18.2473 17.375 17.75 17.375ZM22.5753 6.08094L20.0169 14.3966C19.8535 14.9343 19.5211 15.4051 19.069 15.739C18.6169 16.0729 18.0692 16.2521 17.5072 16.25H8.27469C7.7046 16.2482 7.15046 16.0616 6.6953 15.7183C6.24015 15.3751 5.90848 14.8936 5.75 14.3459L2.54469 3.125H1.625C1.32663 3.125 1.04048 3.00647 0.829505 2.7955C0.618526 2.58452 0.5 2.29837 0.5 2C0.5 1.70163 0.618526 1.41548 0.829505 1.2045C1.04048 0.993526 1.32663 0.875 1.625 0.875H2.82687C3.23407 0.876258 3.62988 1.00951 3.95493 1.25478C4.27998 1.50004 4.51674 1.84409 4.62969 2.23531L5.31312 4.625H21.5C21.6761 4.62499 21.8497 4.6663 22.0069 4.74561C22.164 4.82492 22.3004 4.94001 22.405 5.08164C22.5096 5.22326 22.5795 5.38746 22.6091 5.56102C22.6387 5.73458 22.6271 5.91266 22.5753 6.08094ZM19.9766 6.875H5.95531L7.91375 13.7281C7.93617 13.8065 7.98354 13.8755 8.04867 13.9245C8.1138 13.9736 8.19315 14.0001 8.27469 14H17.5072C17.5875 14.0002 17.6656 13.9746 17.7303 13.927C17.7949 13.8794 17.8426 13.8123 17.8662 13.7356L19.9766 6.875Z" fill="#999999"/>
</svg>
