<svg width="19" height="21" viewBox="0 0 19 21" fill="none" xmlns="http://www.w3.org/2000/svg">
<path d="M18.2712 8.45468L10.7759 1.37937L10.7609 1.36531C10.4165 1.05008 9.96646 0.875244 9.49953 0.875244C9.0326 0.875244 8.58259 1.05008 8.23812 1.36531L8.22219 1.37937L0.72875 8.45468C0.538719 8.6305 0.387016 8.84364 0.28313 9.08077C0.179244 9.3179 0.125411 9.57392 0.125 9.83281V18.5C0.125 18.9973 0.322544 19.4742 0.674175 19.8258C1.02581 20.1775 1.50272 20.375 2 20.375H6.5C6.99728 20.375 7.47419 20.1775 7.82583 19.8258C8.17746 19.4742 8.375 18.9973 8.375 18.5V14.375H10.625V18.5C10.625 18.9973 10.8225 19.4742 11.1742 19.8258C11.5258 20.1775 12.0027 20.375 12.5 20.375H17C17.4973 20.375 17.9742 20.1775 18.3258 19.8258C18.6775 19.4742 18.875 18.9973 18.875 18.5V9.83281C18.8746 9.57392 18.8208 9.3179 18.7169 9.08077C18.613 8.84364 18.4613 8.6305 18.2712 8.45468ZM16.625 18.125H12.875V14C12.875 13.7538 12.8265 13.5099 12.7323 13.2825C12.638 13.055 12.4999 12.8483 12.3258 12.6742C12.1517 12.5001 11.945 12.362 11.7175 12.2677C11.49 12.1735 11.2462 12.125 11 12.125H8C7.50272 12.125 7.02581 12.3225 6.67417 12.6742C6.32254 13.0258 6.125 13.5027 6.125 14V18.125H2.375V9.995L9.5 3.26843L16.625 9.995V18.125Z" fill="#999999"/>
</svg>
