<svg width="24" height="16" viewBox="0 0 24 16" fill="none" xmlns="http://www.w3.org/2000/svg">
<path d="M14.25 3.49994C14.25 3.20157 14.3685 2.91543 14.5795 2.70445C14.7905 2.49347 15.0766 2.37494 15.375 2.37494H22.875C23.1733 2.37494 23.4595 2.49347 23.6705 2.70445C23.8814 2.91543 24 3.20157 24 3.49994C24 3.79831 23.8814 4.08446 23.6705 4.29544C23.4595 4.50642 23.1733 4.62494 22.875 4.62494H15.375C15.0766 4.62494 14.7905 4.50642 14.5795 4.29544C14.3685 4.08446 14.25 3.79831 14.25 3.49994ZM22.875 6.87494H15.375C15.0766 6.87494 14.7905 6.99347 14.5795 7.20445C14.3685 7.41543 14.25 7.70157 14.25 7.99994C14.25 8.29831 14.3685 8.58446 14.5795 8.79544C14.7905 9.00641 15.0766 9.12494 15.375 9.12494H22.875C23.1733 9.12494 23.4595 9.00641 23.6705 8.79544C23.8814 8.58446 24 8.29831 24 7.99994C24 7.70157 23.8814 7.41543 23.6705 7.20445C23.4595 6.99347 23.1733 6.87494 22.875 6.87494ZM22.875 11.3749H17.625C17.3266 11.3749 17.0405 11.4935 16.8295 11.7044C16.6185 11.9154 16.5 12.2016 16.5 12.4999C16.5 12.7983 16.6185 13.0845 16.8295 13.2954C17.0405 13.5064 17.3266 13.6249 17.625 13.6249H22.875C23.1733 13.6249 23.4595 13.5064 23.6705 13.2954C23.8814 13.0845 24 12.7983 24 12.4999C24 12.2016 23.8814 11.9154 23.6705 11.7044C23.4595 11.4935 23.1733 11.3749 22.875 11.3749ZM14.5893 13.7187C14.6263 13.8618 14.6347 14.0107 14.6141 14.157C14.5934 14.3033 14.5442 14.4441 14.4692 14.5714C14.3941 14.6986 14.2947 14.8099 14.1767 14.8988C14.0587 14.9876 13.9243 15.0524 13.7812 15.0893C13.6382 15.1263 13.4892 15.1346 13.3429 15.114C13.1966 15.0934 13.0558 15.0442 12.9285 14.9691C12.8013 14.8941 12.69 14.7947 12.6012 14.6767C12.5123 14.5586 12.4475 14.4243 12.4106 14.2812C11.8743 12.1971 9.7631 10.6249 7.49997 10.6249C5.23685 10.6249 3.1256 12.1962 2.58935 14.2812C2.55241 14.4243 2.48766 14.5586 2.39879 14.6767C2.30993 14.7947 2.19868 14.8941 2.0714 14.9691C1.94413 15.0442 1.80332 15.0934 1.65702 15.114C1.51071 15.1346 1.36178 15.1263 1.21872 15.0893C1.07566 15.0524 0.941281 14.9876 0.823246 14.8988C0.705211 14.8099 0.605836 14.6986 0.530795 14.5714C0.455754 14.4441 0.406516 14.3033 0.385892 14.157C0.365269 14.0107 0.373664 13.8618 0.410598 13.7187C0.914973 11.7593 2.29404 10.1412 4.07716 9.21869C3.38826 8.53978 2.91688 7.67129 2.72299 6.7237C2.5291 5.77612 2.62147 4.79228 2.98834 3.89734C3.35521 3.0024 3.98 2.23682 4.78323 1.698C5.58646 1.15917 6.53182 0.87146 7.49904 0.87146C8.46625 0.87146 9.41161 1.15917 10.2148 1.698C11.0181 2.23682 11.6429 3.0024 12.0097 3.89734C12.3766 4.79228 12.469 5.77612 12.2751 6.7237C12.0812 7.67129 11.6098 8.53978 10.9209 9.21869C12.7059 10.1421 14.085 11.7603 14.5893 13.7187ZM7.49997 8.37494C8.01915 8.37494 8.52667 8.22099 8.95835 7.93255C9.39002 7.64411 9.72648 7.23414 9.92516 6.75449C10.1238 6.27483 10.1758 5.74703 10.0745 5.23783C9.97325 4.72863 9.72324 4.2609 9.35613 3.89379C8.98902 3.52667 8.52129 3.27667 8.01209 3.17538C7.50289 3.07409 6.97509 3.12608 6.49543 3.32476C6.01577 3.52344 5.6058 3.85989 5.31737 4.29157C5.02893 4.72325 4.87497 5.23077 4.87497 5.74994C4.87497 6.09466 4.94287 6.43601 5.07479 6.75449C5.20671 7.07297 5.40006 7.36234 5.64382 7.6061C6.1361 8.09838 6.80378 8.37494 7.49997 8.37494Z" fill="#1A1A1A"/>
</svg>
