<svg width="22" height="22" viewBox="0 0 22 22" fill="none" xmlns="http://www.w3.org/2000/svg">
<path d="M20.15 4.87249L11.9 0.356553C11.6243 0.204813 11.3147 0.125244 11 0.125244C10.6853 0.125244 10.3757 0.204813 10.1 0.356553L1.85 4.87249C1.5548 5.03401 1.3085 5.272 1.13695 5.56149C0.965404 5.85098 0.874922 6.1813 0.875 6.5178V15.4822C0.874922 15.8187 0.965404 16.149 1.13695 16.4385C1.3085 16.728 1.5548 16.966 1.85 17.1275L10.1 21.6434C10.3756 21.7953 10.6853 21.875 11 21.875C11.3147 21.875 11.6244 21.7953 11.9 21.6434L20.15 17.1275C20.4452 16.966 20.6915 16.728 20.863 16.4385C21.0346 16.149 21.1251 15.8187 21.125 15.4822V6.5178C21.1251 6.1813 21.0346 5.85098 20.863 5.56149C20.6915 5.272 20.4452 5.03401 20.15 4.87249ZM11 2.42843L17.75 6.12499L15.7409 7.22468L8.99094 3.52905L11 2.42843ZM11 9.81874L4.25 6.12499L6.64625 4.81249L13.3962 8.50718L11 9.81874ZM3.125 8.07405L9.875 11.7678V18.9556L3.125 15.26V8.07405ZM12.125 18.9556V11.7678L14.375 10.5369V13.25C14.375 13.5484 14.4935 13.8345 14.7045 14.0455C14.9155 14.2565 15.2016 14.375 15.5 14.375C15.7984 14.375 16.0845 14.2565 16.2955 14.0455C16.5065 13.8345 16.625 13.5484 16.625 13.25V9.30499L18.875 8.07405V15.26L12.125 18.9556Z" fill="#1A1A1A"/>
</svg>
